<svg xmlns="http://www.w3.org/2000/svg" xmlns:xlink="http://www.w3.org/1999/xlink" viewBox="0 0 44.316 44.316">
  <defs>
    <style>
      .cls-1, .cls-2 {
        fill: #fd016e;
      }

      .cls-1 {
        clip-rule: evenodd;
      }

      .cls-3 {
        clip-path: url(#clip-path);
      }

      .cls-4 {
        clip-path: url(#clip-path-2);
      }
    </style>
    <clipPath id="clip-path">
      <path id="Path_48" data-name="Path 48" class="cls-1" d="M44.643-44.6a1.359,1.359,0,0,0-2,0l-3,3a5,5,0,0,0-1,0h-15a2.859,2.859,0,0,0-2,1l-20,20a2.718,2.718,0,0,0,0,4l15,15a2.718,2.718,0,0,0,4,0l20-20a2.869,2.869,0,0,0,1-2v-15a5,5,0,0,0,0-1l3-2a2.784,2.784,0,0,0,0-3Zm-6,21-20,20-15-15,20-20h13l-5,5c-.705-.376-1.2-.995-2-1a5,5,0,0,0-5,5,5,5,0,0,0,5,5,5,5,0,0,0,5-5c-.008-.8.379-1.3,0-2l4-5Zm-7-6a2,2,0,0,1-2,2,2,2,0,0,1-2-2,2,2,0,0,1,2-2c.532,0,.623.625,1,1s1,.468,1,1Z"/>
    </clipPath>
    <clipPath id="clip-path-2">
      <path id="Path_47" data-name="Path 47" class="cls-2" d="M-520.357,2459.4h1000v-3060h-1000Z"/>
    </clipPath>
  </defs>
  <g id="Group_66" data-name="Group 66" transform="translate(-0.765 45.037)">
    <g id="Group_39" data-name="Group 39" class="cls-3">
      <g id="Group_38" data-name="Group 38" class="cls-4">
        <path id="Path_46" data-name="Path 46" class="cls-2" d="M-4.357-49.6h54v54h-54Z"/>
      </g>
    </g>
  </g>
</svg>
