<svg xmlns="http://www.w3.org/2000/svg" xmlns:xlink="http://www.w3.org/1999/xlink" viewBox="0 0 45.36 39.227">
  <defs>
    <style>
      .cls-1, .cls-2 {
        fill: #fd016e;
      }

      .cls-1 {
        clip-rule: evenodd;
      }

      .cls-3 {
        clip-path: url(#clip-path);
      }

      .cls-4 {
        clip-path: url(#clip-path-2);
      }
    </style>
    <clipPath id="clip-path">
      <path id="Path_51" data-name="Path 51" class="cls-1" d="M16.23-14.6h20a3.521,3.521,0,0,0,3-2l6-14a3.328,3.328,0,0,0,0-3c-.556-.842-1.992-1-3-1h-33c-.577.007-.519.681-1,1l-2-5c-.238-.545-.405-1-1-1h-3a2.5,2.5,0,0,0-2,2c0,.828,1.172,1,2,1h2l9,21c1.131,3.383-.146,6.952-2,10,0,2.035,2.115,4.232,4,5s3.58-.542,5-2a4.239,4.239,0,0,0,1-5h11a5.187,5.187,0,0,0,1,6,5.061,5.061,0,0,0,6,0,4.168,4.168,0,0,0,2-5c-.612-2.119-1.794-3.975-4-4h-20a2,2,0,0,1-2-2,2,2,0,0,1,2-2Zm26-17-6,14h-21l-6-14Zm-24,26a2,2,0,0,1-2,2,2,2,0,0,1-2-2,2,2,0,0,1,2-2A2,2,0,0,1,18.23-5.6Zm20,0a2,2,0,0,1-2,2,2,2,0,0,1-2-2,2,2,0,0,1,2-2A2,2,0,0,1,38.23-5.6Z"/>
    </clipPath>
    <clipPath id="clip-path-2">
      <path id="Path_50" data-name="Path 50" class="cls-2" d="M-520.77,1578.4h1000v-3060h-1000Z"/>
    </clipPath>
  </defs>
  <g id="Group_67" data-name="Group 67" transform="translate(-0.23 39.6)">
    <g id="Group_42" data-name="Group 42" class="cls-3">
      <g id="Group_41" data-name="Group 41" class="cls-4">
        <path id="Path_49" data-name="Path 49" class="cls-2" d="M-4.77-44.6h55v49h-55Z"/>
      </g>
    </g>
  </g>
</svg>
