<svg xmlns="http://www.w3.org/2000/svg" xmlns:xlink="http://www.w3.org/1999/xlink" viewBox="0 0 26 44">
  <defs>
    <style>
      .cls-1, .cls-2 {
        fill: #fd016e;
      }

      .cls-1 {
        clip-rule: evenodd;
      }

      .cls-3 {
        clip-path: url(#clip-path);
      }

      .cls-4 {
        clip-path: url(#clip-path-2);
      }

      .cls-5 {
        clip-path: url(#clip-path-3);
      }
    </style>
    <clipPath id="clip-path">
      <path id="Path_54" data-name="Path 54" class="cls-1" d="M26.72-37.6a7,7,0,0,0-7-7h-12a7,7,0,0,0-7,7v30a7,7,0,0,0,7,7h12a7,7,0,0,0,7-7Zm-23,2h20v24h-20Zm4-6h12a4.165,4.165,0,0,1,4,3h-20A4.165,4.165,0,0,1,7.72-41.6Zm12,38h-12a4,4,0,0,1-4-4v-1h20v1A4,4,0,0,1,19.72-3.6Z"/>
    </clipPath>
    <clipPath id="clip-path-2">
      <path id="Path_53" data-name="Path 53" class="cls-2" d="M-706.28,2107.4h1000v-3060h-1000Z"/>
    </clipPath>
    <clipPath id="clip-path-3">
      <path id="Path_57" data-name="Path 57" class="cls-1" d="M13.72-4.6c.828,0,1-.172,1-1s-.172-2-1-2a2.5,2.5,0,0,0-2,2C11.72-4.772,12.891-4.6,13.72-4.6Z"/>
    </clipPath>
  </defs>
  <g id="Group_70" data-name="Group 70" transform="translate(-0.72 44.6)">
    <g id="Group_45" data-name="Group 45" class="cls-3">
      <g id="Group_44" data-name="Group 44" class="cls-4">
        <path id="Path_52" data-name="Path 52" class="cls-2" d="M-4.28-49.6h36v54h-36Z"/>
      </g>
    </g>
    <g id="Group_47" data-name="Group 47" class="cls-5">
      <g id="Group_46" data-name="Group 46" class="cls-4">
        <path id="Path_55" data-name="Path 55" class="cls-2" d="M6.72-12.6h13V.4h-13Z"/>
      </g>
    </g>
  </g>
</svg>
