<svg xmlns="http://www.w3.org/2000/svg" xmlns:xlink="http://www.w3.org/1999/xlink" viewBox="0 0 36.219 41.159">
  <defs>
    <style>
      .cls-1, .cls-2 {
        fill: #fd016e;
      }

      .cls-1 {
        clip-rule: evenodd;
      }

      .cls-3 {
        clip-path: url(#clip-path);
      }

      .cls-4 {
        clip-path: url(#clip-path-2);
      }

      .cls-5 {
        clip-path: url(#clip-path-3);
      }
    </style>
    <clipPath id="clip-path">
      <path id="Path_30" data-name="Path 30" class="cls-1" d="M36.72-23.735a18.145,18.145,0,0,0-10-16c-5.995-3.122-12.491-2.916-18,1s-8.978,11.312-8,18a11,11,0,0,0,0,2,18,18,0,0,0,18,18,18,18,0,0,0,18-18,11,11,0,0,0,0-2A26.465,26.465,0,0,0,36.72-23.735Zm-18-15a15,15,0,0,1,15,15,15,15,0,0,1-15,15,15,15,0,0,1-15-15A15,15,0,0,1,18.72-38.735Zm0,35a15.349,15.349,0,0,1-13-8,18.188,18.188,0,0,0,13,6,18.188,18.188,0,0,0,13-6A15.2,15.2,0,0,1,18.72-3.735Z"/>
    </clipPath>
    <clipPath id="clip-path-2">
      <path id="Path_29" data-name="Path 29" class="cls-2" d="M-437.28,1490.265h1000v-3060h-1000Z"/>
    </clipPath>
    <clipPath id="clip-path-3">
      <path id="Path_33" data-name="Path 33" class="cls-1" d="M16.72-24.735l1-2v8a2.5,2.5,0,0,0,2,2c.828,0,1-1.172,1-2v-11c-.012-.609-.432-1.781-1-2s-1.582.557-2,1l-4,4a1.356,1.356,0,0,0,0,2,2.776,2.776,0,0,0,3,0Z"/>
    </clipPath>
  </defs>
  <g id="Group_68" data-name="Group 68" transform="translate(-0.555 41.894)">
    <g id="Group_25" data-name="Group 25" class="cls-3">
      <g id="Group_24" data-name="Group 24" class="cls-4">
        <path id="Path_28" data-name="Path 28" class="cls-2" d="M-4.28-46.735h46v51h-46Z"/>
      </g>
    </g>
    <g id="Group_27" data-name="Group 27" class="cls-5">
      <g id="Group_26" data-name="Group 26" class="cls-4">
        <path id="Path_31" data-name="Path 31" class="cls-2" d="M8.72-36.735h17v25h-17Z"/>
      </g>
    </g>
  </g>
</svg>
