<svg xmlns="http://www.w3.org/2000/svg" xmlns:xlink="http://www.w3.org/1999/xlink" viewBox="0 0 44 40.16">
  <defs>
    <style>
      .cls-1, .cls-2 {
        fill: #fd016e;
      }

      .cls-1 {
        clip-rule: evenodd;
      }

      .cls-3 {
        clip-path: url(#clip-path);
      }

      .cls-4 {
        clip-path: url(#clip-path-2);
      }

      .cls-5 {
        clip-path: url(#clip-path-3);
      }

      .cls-6 {
        clip-path: url(#clip-path-5);
      }

      .cls-7 {
        clip-path: url(#clip-path-7);
      }
    </style>
    <clipPath id="clip-path">
      <path id="Path_18" data-name="Path 18" class="cls-1" d="M35.72-37.6a6,6,0,0,1,6,6v16a6,6,0,0,1-6,6h-18l-7,6v-6h-1a6,6,0,0,1-6-6v-16a6,6,0,0,1,6-6Zm0-3h-26a9,9,0,0,0-9,9v16a9.249,9.249,0,0,0,7,9v3a3.605,3.605,0,0,0,2,3c1.08.484,2.118-.211,3-1l6-5h17a9,9,0,0,0,9-9v-16a9,9,0,0,0-9-9Z"/>
    </clipPath>
    <clipPath id="clip-path-2">
      <path id="Path_17" data-name="Path 17" class="cls-2" d="M-434.28,1751.4h1000v-3060h-1000Z"/>
    </clipPath>
    <clipPath id="clip-path-3">
      <path id="Path_21" data-name="Path 21" class="cls-1" d="M22.72-21.6a2.5,2.5,0,0,0,2-2c0-.828-1.172-1-2-1s-1,.172-1,1S21.891-21.6,22.72-21.6Z"/>
    </clipPath>
    <clipPath id="clip-path-5">
      <path id="Path_24" data-name="Path 24" class="cls-1" d="M32.72-21.6a2.5,2.5,0,0,0,2-2c0-.828-1.172-1-2-1s-1,.172-1,1S31.891-21.6,32.72-21.6Z"/>
    </clipPath>
    <clipPath id="clip-path-7">
      <path id="Path_27" data-name="Path 27" class="cls-1" d="M12.72-21.6a2.5,2.5,0,0,0,2-2c0-.828-1.172-1-2-1s-1,.172-1,1S11.891-21.6,12.72-21.6Z"/>
    </clipPath>
  </defs>
  <g id="Group_71" data-name="Group 71" transform="translate(-0.72 40.6)">
    <g id="Group_16" data-name="Group 16" class="cls-3">
      <g id="Group_15" data-name="Group 15" class="cls-4">
        <path id="Path_16" data-name="Path 16" class="cls-2" d="M-4.28-45.6h54v50h-54Z"/>
      </g>
    </g>
    <g id="Group_18" data-name="Group 18" class="cls-5">
      <g id="Group_17" data-name="Group 17" class="cls-4">
        <path id="Path_19" data-name="Path 19" class="cls-2" d="M16.72-29.6h13v13h-13Z"/>
      </g>
    </g>
    <g id="Group_20" data-name="Group 20" class="cls-6">
      <g id="Group_19" data-name="Group 19" class="cls-4">
        <path id="Path_22" data-name="Path 22" class="cls-2" d="M26.72-29.6h13v13h-13Z"/>
      </g>
    </g>
    <g id="Group_22" data-name="Group 22" class="cls-7">
      <g id="Group_21" data-name="Group 21" class="cls-4">
        <path id="Path_25" data-name="Path 25" class="cls-2" d="M6.72-29.6h13v13h-13Z"/>
      </g>
    </g>
  </g>
</svg>
