<svg xmlns="http://www.w3.org/2000/svg" xmlns:xlink="http://www.w3.org/1999/xlink" viewBox="0 0 38 38">
  <defs>
    <style>
      .cls-1, .cls-2 {
        fill: #fd016e;
      }

      .cls-1 {
        clip-rule: evenodd;
      }

      .cls-3 {
        clip-path: url(#clip-path);
      }

      .cls-4 {
        clip-path: url(#clip-path-2);
      }

      .cls-5 {
        clip-path: url(#clip-path-3);
      }

      .cls-6 {
        clip-path: url(#clip-path-5);
      }

      .cls-7 {
        clip-path: url(#clip-path-7);
      }
    </style>
    <clipPath id="clip-path">
      <path id="Path_36" data-name="Path 36" class="cls-1" d="M9.72-24.6a5,5,0,0,0,5-5,5,5,0,0,0-5-5,5,5,0,0,0-5,5A5,5,0,0,0,9.72-24.6Zm0-7a2,2,0,0,1,2,2,2,2,0,0,1-2,2,2,2,0,0,1-2-2A2,2,0,0,1,9.72-31.6Z"/>
    </clipPath>
    <clipPath id="clip-path-2">
      <path id="Path_35" data-name="Path 35" class="cls-2" d="M-172.28,2110.4h1000v-3060h-1000Z"/>
    </clipPath>
    <clipPath id="clip-path-3">
      <path id="Path_39" data-name="Path 39" class="cls-1" d="M35.72-38.6h-32a3,3,0,0,0-3,3v12a3,3,0,0,0,3,3h32a3,3,0,0,0,3-3v-12A3,3,0,0,0,35.72-38.6Zm0,15h-32v-12h32Z"/>
    </clipPath>
    <clipPath id="clip-path-5">
      <path id="Path_42" data-name="Path 42" class="cls-1" d="M9.72-4.6a5,5,0,0,0,5-5,5,5,0,0,0-5-5,5,5,0,0,0-5,5A5,5,0,0,0,9.72-4.6Zm0-7a2,2,0,0,1,2,2,2,2,0,0,1-2,2,2,2,0,0,1-2-2A2,2,0,0,1,9.72-11.6Z"/>
    </clipPath>
    <clipPath id="clip-path-7">
      <path id="Path_45" data-name="Path 45" class="cls-1" d="M35.72-18.6h-32a3,3,0,0,0-3,3v12a3,3,0,0,0,3,3h32a3,3,0,0,0,3-3v-12A3,3,0,0,0,35.72-18.6Zm0,15h-32v-12h32Z"/>
    </clipPath>
  </defs>
  <g id="Group_69" data-name="Group 69" transform="translate(-0.72 38.6)">
    <g id="Group_30" data-name="Group 30" class="cls-3">
      <g id="Group_29" data-name="Group 29" class="cls-4">
        <path id="Path_34" data-name="Path 34" class="cls-2" d="M-.28-39.6h20v20h-20Z"/>
      </g>
    </g>
    <g id="Group_32" data-name="Group 32" class="cls-5">
      <g id="Group_31" data-name="Group 31" class="cls-4">
        <path id="Path_37" data-name="Path 37" class="cls-2" d="M-4.28-43.6h48v28h-48Z"/>
      </g>
    </g>
    <g id="Group_34" data-name="Group 34" class="cls-6">
      <g id="Group_33" data-name="Group 33" class="cls-4">
        <path id="Path_40" data-name="Path 40" class="cls-2" d="M-.28-19.6h20V.4h-20Z"/>
      </g>
    </g>
    <g id="Group_36" data-name="Group 36" class="cls-7">
      <g id="Group_35" data-name="Group 35" class="cls-4">
        <path id="Path_43" data-name="Path 43" class="cls-2" d="M-4.28-23.6h48v28h-48Z"/>
      </g>
    </g>
  </g>
</svg>
