<svg xmlns="http://www.w3.org/2000/svg" xmlns:xlink="http://www.w3.org/1999/xlink" viewBox="0 0 55 54">
  <defs>
    <style>
      .cls-1, .cls-2 {
        fill: none;
      }

      .cls-1 {
        clip-rule: evenodd;
      }

      .cls-3 {
        clip-path: url(#clip-path);
      }

      .cls-4 {
        clip-path: url(#clip-path-2);
      }

      .cls-5 {
        fill: #fff;
      }
    </style>
    <clipPath id="clip-path">
      <path id="Path_70" data-name="Path 70" class="cls-1" d="M-.418-34c0-14.959,13.041-27,28-27a26.94,26.94,0,0,1,27,27,26.94,26.94,0,0,1-27,27C12.623-7-.418-19.041-.418-34Zm29,15V-34h4l1-5h-5v-2c0-1.324.1-2,2-2h3v-5h-4c-4.887,0-7,1.857-7,6v3h-3v5h3v15Z" transform="translate(0 61)"/>
    </clipPath>
    <clipPath id="clip-path-2">
      <path id="Path_69" data-name="Path 69" class="cls-2" d="M-61.345,322.586h723v-944h-723Z" transform="translate(61 621)"/>
    </clipPath>
  </defs>
  <g id="Group_56" data-name="Group 56" class="cls-3" transform="translate(0.418)">
    <g id="Group_55" data-name="Group 55" class="cls-4" transform="translate(-55.073 -505.586)">
      <path id="Path_68" data-name="Path 68" class="cls-5" d="M-4.9-66.486h63v64h-63Z" transform="translate(55.559 567.072)"/>
    </g>
  </g>
</svg>
