<svg xmlns="http://www.w3.org/2000/svg" xmlns:xlink="http://www.w3.org/1999/xlink" viewBox="0 0 54.17 54.17">
  <defs>
    <style>
      .cls-1, .cls-2 {
        fill: #fd016e;
      }

      .cls-1 {
        clip-rule: evenodd;
      }

      .cls-3 {
        clip-path: url(#clip-path);
      }

      .cls-4 {
        clip-path: url(#clip-path-2);
      }
    </style>
    <clipPath id="clip-path">
      <path id="Path_96" data-name="Path 96" class="cls-1" d="M0-33.915A27.085,27.085,0,0,1,27.085-61,27.085,27.085,0,0,1,54.17-33.915,27.085,27.085,0,0,1,27.085-6.83,27.085,27.085,0,0,1,0-33.915ZM29.005-18.893V-33.628h4.068l.539-5.078H29.005l.007-2.542c0-1.324.126-2.034,2.028-2.034h2.543V-48.36H29.515c-4.887,0-6.607,2.463-6.607,6.606v3.049H19.862v5.078h3.046v14.735Z" transform="translate(0 61)"/>
    </clipPath>
    <clipPath id="clip-path-2">
      <path id="Path_95" data-name="Path 95" class="cls-2" d="M-61,322.46H661.267V-621H-61Z" transform="translate(61 621)"/>
    </clipPath>
  </defs>
  <g id="Group_84" data-name="Group 84" class="cls-3">
    <g id="Group_83" data-name="Group 83" class="cls-4" transform="translate(-55.073 -505.586)">
      <path id="Path_94" data-name="Path 94" class="cls-2" d="M-5-66H58.2V-2.8H-5Z" transform="translate(55.559 567.072)"/>
    </g>
  </g>
</svg>
