<svg id="Group_87" data-name="Group 87" xmlns="http://www.w3.org/2000/svg" xmlns:xlink="http://www.w3.org/1999/xlink" viewBox="0 0 54.172 54.172">
  <defs>
    <style>
      .cls-1, .cls-2 {
        fill: #fd016e;
      }

      .cls-1 {
        clip-rule: evenodd;
      }

      .cls-3 {
        clip-path: url(#clip-path);
      }

      .cls-4 {
        clip-path: url(#clip-path-2);
      }

      .cls-5 {
        clip-path: url(#clip-path-3);
      }

      .cls-6 {
        clip-path: url(#clip-path-5);
      }
    </style>
    <clipPath id="clip-path">
      <path id="Path_61" data-name="Path 61" class="cls-1" d="M299-32.914A27.086,27.086,0,0,1,326.086-60a27.086,27.086,0,0,1,27.086,27.086A27.086,27.086,0,0,1,326.086-5.828,27.086,27.086,0,0,1,299-32.914ZM326.087-47.36c-3.923,0-4.416.017-5.957.087a10.6,10.6,0,0,0-3.506.671,7.074,7.074,0,0,0-2.559,1.666,7.091,7.091,0,0,0-1.667,2.559,10.554,10.554,0,0,0-.671,3.506c-.069,1.541-.087,2.034-.087,5.957s.017,4.414.087,5.955a10.617,10.617,0,0,0,.671,3.506,7.077,7.077,0,0,0,1.666,2.559,7.073,7.073,0,0,0,2.558,1.667,10.61,10.61,0,0,0,3.507.671c1.541.07,2.033.087,5.956.087s4.414-.017,5.955-.087a10.617,10.617,0,0,0,3.508-.671,7.068,7.068,0,0,0,2.557-1.667,7.091,7.091,0,0,0,1.667-2.559,10.71,10.71,0,0,0,.671-3.506c.069-1.541.087-2.032.087-5.955s-.018-4.416-.087-5.957a10.7,10.7,0,0,0-.671-3.506,7.09,7.09,0,0,0-1.667-2.559,7.06,7.06,0,0,0-2.558-1.666,10.634,10.634,0,0,0-3.509-.671c-1.541-.07-2.031-.087-5.956-.087Z" transform="translate(-299 60)"/>
    </clipPath>
    <clipPath id="clip-path-2">
      <path id="Path_60" data-name="Path 60" class="cls-2" d="M-61,322.5H661.293V-621H-61Z" transform="translate(61 621)"/>
    </clipPath>
    <clipPath id="clip-path-3">
      <path id="Path_64" data-name="Path 64" class="cls-1" d="M326.432-43.117h1.3c3.857,0,4.314.014,5.837.083a8,8,0,0,1,2.682.5,4.467,4.467,0,0,1,1.66,1.08,4.483,4.483,0,0,1,1.081,1.661,7.982,7.982,0,0,1,.5,2.682c.069,1.523.084,1.98.084,5.836s-.015,4.313-.084,5.836a7.99,7.99,0,0,1-.5,2.682,4.467,4.467,0,0,1-1.081,1.659,4.467,4.467,0,0,1-1.66,1.08,7.969,7.969,0,0,1-2.682.5c-1.523.069-1.98.084-5.837.084s-4.315-.015-5.837-.084a8.013,8.013,0,0,1-2.682-.5,4.475,4.475,0,0,1-1.661-1.08,4.477,4.477,0,0,1-1.081-1.66,7.981,7.981,0,0,1-.5-2.682c-.069-1.523-.083-1.98-.083-5.838s.014-4.313.083-5.836a8,8,0,0,1,.5-2.682,4.475,4.475,0,0,1,1.081-1.661,4.484,4.484,0,0,1,1.661-1.081,7.98,7.98,0,0,1,2.682-.5c1.333-.06,1.849-.078,4.541-.081Zm9.007,2.4a1.733,1.733,0,0,0-1.734,1.733,1.734,1.734,0,0,0,1.734,1.734,1.734,1.734,0,0,0,1.733-1.734,1.734,1.734,0,0,0-1.733-1.734Zm-7.711,2.025a7.419,7.419,0,0,0-7.419,7.419,7.418,7.418,0,0,0,7.419,7.417,7.417,7.417,0,0,0,7.417-7.417,7.418,7.418,0,0,0-7.418-7.419Z" transform="translate(-315.885 43.121)"/>
    </clipPath>
    <clipPath id="clip-path-5">
      <path id="Path_67" data-name="Path 67" class="cls-1" d="M328.483-35.333a4.815,4.815,0,0,1,4.815,4.815,4.816,4.816,0,0,1-4.815,4.815,4.815,4.815,0,0,1-4.815-4.815,4.815,4.815,0,0,1,4.815-4.815Z" transform="translate(-323.668 35.333)"/>
    </clipPath>
  </defs>
  <g id="Group_50" data-name="Group 50" class="cls-3" transform="translate(0 0)">
    <g id="Group_49" data-name="Group 49" class="cls-4" transform="translate(-325.032 -506.512)">
      <path id="Path_59" data-name="Path 59" class="cls-2" d="M294-65h63.2V-1.8H294Z" transform="translate(26.517 566.997)"/>
    </g>
  </g>
  <g id="Group_52" data-name="Group 52" class="cls-5" transform="translate(15.245 15.24)">
    <g id="Group_51" data-name="Group 51" class="cls-4" transform="translate(-340.276 -521.751)">
      <path id="Path_62" data-name="Path 62" class="cls-2" d="M310.885-48.121H343.6V-15.41H310.885Z" transform="translate(24.877 565.358)"/>
    </g>
  </g>
  <g id="Group_54" data-name="Group 54" class="cls-6" transform="translate(22.272 22.271)">
    <g id="Group_53" data-name="Group 53" class="cls-4" transform="translate(-347.304 -528.782)">
      <path id="Path_65" data-name="Path 65" class="cls-2" d="M318.668-40.333h18.659v18.659H318.668Z" transform="translate(24.121 564.601)"/>
    </g>
  </g>
</svg>
