<svg xmlns="http://www.w3.org/2000/svg" xmlns:xlink="http://www.w3.org/1999/xlink" viewBox="0 0 54 54">
  <defs>
    <style>
      .cls-1, .cls-2 {
        fill: none;
      }

      .cls-1 {
        clip-rule: evenodd;
      }

      .cls-3 {
        clip-path: url(#clip-path);
      }

      .cls-4 {
        clip-path: url(#clip-path-2);
      }

      .cls-5 {
        fill: #fff;
      }
    </style>
    <clipPath id="clip-path">
      <path id="Path_73" data-name="Path 73" class="cls-1" d="M100.2-34a26.939,26.939,0,0,1,27-27,26.939,26.939,0,0,1,27,27,26.939,26.939,0,0,1-27,27A26.939,26.939,0,0,1,100.2-34Zm28,8s.733.282,1,0c.244-.258,0-1,0-1s-.075-2.664,1-3c1.06-.33,2.556,3.028,4,4a1.7,1.7,0,0,0,2,0h4s1.957-.442,1-2a24.287,24.287,0,0,0-3-3c-2.421-2.2-1.914-2.187,1-6,1.775-2.322,2.222-3.394,2-4-.211-.58-1,0-1,0h-5a2.381,2.381,0,0,1-1,0,9.985,9.985,0,0,1-1,4c-1.935,3.224-2.683,3.2-3,3-.736-.467-1-2-1-3,0-3.125.423-4.663-1-5a12.356,12.356,0,0,0-2,0c-1.55-.015-2.257-.356-3,0-.495.237-1.233.969-1,1,.287.037.655.539,1,1a11.9,11.9,0,0,1,1,2s-.147,3.544-1,4c-.585.313-1.275-.075-3-3a10.537,10.537,0,0,1-1-4s-.77.166-1,0h-5c-.2.234,0,1,0,1s2.34,7.259,6,11a10.737,10.737,0,0,0,8,3Z" transform="translate(-100 61)"/>
    </clipPath>
    <clipPath id="clip-path-2">
      <path id="Path_72" data-name="Path 72" class="cls-2" d="M-61.435,322.609h723v-944h-723Z" transform="translate(61 621)"/>
    </clipPath>
  </defs>
  <g id="Group_58" data-name="Group 58" class="cls-3" transform="translate(-0.202)">
    <g id="Group_57" data-name="Group 57" class="cls-4" transform="translate(-145.363 -505.609)">
      <path id="Path_71" data-name="Path 71" class="cls-5" d="M94.717-66.486h63v64h-63Z" transform="translate(45.848 567.094)"/>
    </g>
  </g>
</svg>
