<svg xmlns="http://www.w3.org/2000/svg" xmlns:xlink="http://www.w3.org/1999/xlink" viewBox="0 0 54.172 54.172">
  <defs>
    <style>
      .cls-1, .cls-2 {
        fill: #fd016e;
      }

      .cls-1 {
        clip-rule: evenodd;
      }

      .cls-3 {
        clip-path: url(#clip-path);
      }

      .cls-4 {
        clip-path: url(#clip-path-2);
      }
    </style>
    <clipPath id="clip-path">
      <path id="Path_99" data-name="Path 99" class="cls-1" d="M100-33.914A27.086,27.086,0,0,1,127.086-61a27.086,27.086,0,0,1,27.086,27.086A27.086,27.086,0,0,1,127.086-6.828,27.086,27.086,0,0,1,100-33.914Zm28.5,7.986a1.479,1.479,0,0,0,.789-.338,1.223,1.223,0,0,0,.236-.745s-.033-2.273,1.043-2.609c1.06-.33,2.421,2.2,3.865,3.171a2.774,2.774,0,0,0,1.919.574l3.859-.053s2.018-.122,1.061-1.68a12.738,12.738,0,0,0-2.869-3.258c-2.421-2.2-2.1-1.848.818-5.661,1.775-2.322,2.484-3.74,2.262-4.346-.211-.58-1.516-.426-1.516-.426l-4.344.026a1,1,0,0,0-.561.1,1.2,1.2,0,0,0-.384.458,24.445,24.445,0,0,1-1.6,3.325c-1.935,3.224-2.707,3.394-3.024,3.194-.736-.467-.553-1.875-.553-2.875,0-3.125.483-4.428-.94-4.765a7.554,7.554,0,0,0-2.028-.2,9.557,9.557,0,0,0-3.6.362c-.495.237-.876.767-.643.8a1.963,1.963,0,0,1,1.282.633,4.051,4.051,0,0,1,.43,1.929s.256,3.679-.6,4.135c-.585.313-1.388-.326-3.113-3.251a26.974,26.974,0,0,1-1.55-3.154,1.27,1.27,0,0,0-.359-.476,1.8,1.8,0,0,0-.667-.264l-4.128.026s-.62.017-.848.282c-.2.234-.016.721-.016.721s3.232,7.422,6.892,11.163a10.017,10.017,0,0,0,7.166,3.2Z" transform="translate(-100 61)"/>
    </clipPath>
    <clipPath id="clip-path-2">
      <path id="Path_98" data-name="Path 98" class="cls-2" d="M-61,322.5H661.3V-621H-61Z" transform="translate(61 621)"/>
    </clipPath>
  </defs>
  <g id="Group_86" data-name="Group 86" class="cls-3">
    <g id="Group_85" data-name="Group 85" class="cls-4" transform="translate(-145.363 -505.609)">
      <path id="Path_97" data-name="Path 97" class="cls-2" d="M95-66h63.2V-2.8H95Z" transform="translate(45.848 567.094)"/>
    </g>
  </g>
</svg>
